<svg xmlns="http://www.w3.org/2000/svg" width="32.616" height="51.639"><g style="line-height:1.25;-inkscape-font-specification:STHupo">



<path style="-inkscape-font-specification:STHupo" d="M17.38 24.726q0-.507.342-.85.356-.355.863-.355t.849.356q.356.342.356.85 0 .506-.356.862-.342.343-.85.343-.506 0-.862-.343-.343-.356-.343-.863zm2.438 1.767v6.672H17.31v-6.672z" color="#000" font-weight="400" font-family="sans-serif" overflow="visible">

<animate dur="3s" values="white; transparent; transparent; white" keyTimes="0; 0.5; 0.7; 1" attributeName="fill" repeatCount="indefinite"/>  </path>






<path style="line-height:normal;font-variant-ligatures:normal;font-variant-position:normal;font-variant-caps:normal;font-variant-numeric:normal;font-variant-alternates:normal;font-variant-east-asian:normal;font-feature-settings:normal;font-variation-settings:normal;text-indent:0;text-align:start;text-decoration-line:none;text-decoration-style:solid;text-decoration-color:#000;text-transform:none;text-orientation:mixed;white-space:normal;shape-padding:0;shape-margin:0;inline-size:0;isolation:auto;mix-blend-mode:normal;solid-color:#000;solid-opacity:1" d="M18.198 50.718c-.431-.097-.85-.355-1.243-.764-.26-.27-1.513-1.78-2.432-2.931C8.564 39.47 1.933 28.767 8.89 20.067c.29-.355.954-1.052 1.303-1.368 1.847-1.675 4.105-2.757 6.509-3.122.716-.108 1.067-.132 1.91-.13.868.001 1.347.039 2.052.161 3.373.585 6.323 2.497 8.303 5.381 1.687 2.457 2.517 5.516 2.324 8.559-.29 4.546-2.613 9.579-7.225 15.65-1.246 1.639-3.584 4.517-3.964 4.878-.577.55-1.275.785-1.904.642z" color="#000" font-weight="400" font-family="sans-serif" overflow="visible" fill="none" stroke="black" stroke-width="1.151"/>


<path style="line-height:normal;font-variant-ligatures:normal;font-variant-position:normal;font-variant-caps:normal;font-variant-numeric:normal;font-variant-alternates:normal;font-variant-east-asian:normal;font-feature-settings:normal;font-variation-settings:normal;text-indent:0;text-align:start;text-decoration-line:none;text-decoration-style:solid;text-decoration-color:#000;text-transform:none;text-orientation:mixed;white-space:normal;shape-padding:0;shape-margin:0;inline-size:0;isolation:auto;mix-blend-mode:normal;solid-color:#000;solid-opacity:1" d="M18.613 16.8c-.843 0-1.197.022-1.914.126a12.715 12.715 0 0 0-6.517 3.006c-9.238 8.584-1.252 20.476 4.33 27.246.46.553 1.002 1.193 1.463 1.726.46.534.837.96.968 1.092.395.395.817.646 1.252.74.635.138 1.338-.09 1.918-.62.097-.09.314-.328.606-.66a121.957 121.957 0 0 0 3.36-4.033c4.612-5.837 6.938-10.678 7.228-15.052a12.791 12.791 0 0 0-2.327-8.236 12.716 12.716 0 0 0-8.314-5.178c-.706-.118-1.185-.155-2.053-.156zm0 .032c.867.002 1.345.039 2.05.156a12.683 12.683 0 0 1 8.292 5.166 12.758 12.758 0 0 1 2.32 8.215c-.289 4.365-2.612 9.2-7.222 15.033a121.622 121.622 0 0 1-3.358 4.032c-.292.332-.51.573-.603.658-.575.525-1.268.749-1.89.613l-.003-.002h-.002c-.426-.094-.84-.338-1.23-.728a32.027 32.027 0 0 1-.969-1.092c-.46-.534-1.004-1.172-1.463-1.725-6.592-7.884-12.99-18.823-4.332-27.203a12.682 12.682 0 0 1 6.502-2.996c.715-.104 1.065-.129 1.908-.127zm1.063 2.127c-14.387.003-9.513 19.025-4.305 25.941a122.649 122.649 0 0 0 2.84 3.346 11.49 11.49 0 0 0 .33.352l.023.02.008.005.006.002.004.002h.01l.004-.002.006-.004a.888.888 0 0 0 .059-.05l.095-.1v.004l.027-.032c.109-.116.533-.604 1.01-1.16.477-.556 1.006-1.179 1.326-1.562 8.087-8.704 12.102-24.695-1.443-26.762zm1.42 26.74c-.32.384-.852 1.009-1.328 1.565a66.346 66.346 0 0 1-1.008 1.158 3.157 3.157 0 0 1-.164.162l-.012.01-.002-.002c-.034-.029-.067-.066-.094-.092a11.544 11.544 0 0 1-.254-.275 109.73 109.73 0 0 1-2.838-3.346c-1.308-10.883 24.484-22.458 5.7.82z" color="#000" font-weight="400" font-family="sans-serif" overflow="visible" fill="none"/>


<path d="M16.458 21.355a7.097 7.16 0 0 1 8.816 4.841 7.097 7.16 0 0 1-4.799 8.895 7.097 7.16 0 0 1-8.816-4.84 7.097 7.16 0 0 1 4.798-8.896" fill="none" stroke="black" stroke-width="1.082" stroke-linejoin="round"/>

</svg>
