<?xml version="1.0" encoding="UTF-8" standalone="no"?>
<svg
   xmlns:dc="http://purl.org/dc/elements/1.1/"
   xmlns:cc="http://creativecommons.org/ns#"
   xmlns:rdf="http://www.w3.org/1999/02/22-rdf-syntax-ns#"
   xmlns:svg="http://www.w3.org/2000/svg"
   xmlns="http://www.w3.org/2000/svg"
   xmlns:sodipodi="http://sodipodi.sourceforge.net/DTD/sodipodi-0.dtd"
   xmlns:inkscape="http://www.inkscape.org/namespaces/inkscape"
   inkscape:version="1.0 (4035a4fb49, 2020-05-01)"
   sodipodi:docname="emiia158_w2.svg"
   id="svg10"
   version="1.1"
   height="36.463123"
   width="26.548445">
  <metadata
     id="metadata16">
    <rdf:RDF>
      <cc:Work
         rdf:about="">
        <dc:format>image/svg+xml</dc:format>
        <dc:type
           rdf:resource="http://purl.org/dc/dcmitype/StillImage" />
        <dc:title></dc:title>
      </cc:Work>
    </rdf:RDF>
  </metadata>
  <defs
     id="defs14" />
  <sodipodi:namedview
     inkscape:current-layer="svg10"
     inkscape:window-maximized="1"
     inkscape:window-y="-11"
     inkscape:window-x="-11"
     inkscape:cy="-12.065049"
     inkscape:cx="-23.313424"
     inkscape:zoom="8.3270397"
     fit-margin-bottom="0"
     fit-margin-right="0"
     fit-margin-left="0"
     fit-margin-top="0"
     showgrid="false"
     id="namedview12"
     inkscape:window-height="1046"
     inkscape:window-width="1920"
     inkscape:pageshadow="2"
     inkscape:pageopacity="0"
     guidetolerance="10"
     gridtolerance="10"
     objecttolerance="10"
     borderopacity="1"
     bordercolor="#666666"
     pagecolor="#ffffff" />
  <path
     id="path2"
     d="m 12.034413,9.8545984 q 0,-0.507 0.342,-0.85 0.356,-0.355 0.863,-0.355 0.507,0 0.849,0.356 0.356,0.342 0.356,0.85 0,0.5059996 -0.356,0.8619996 -0.342,0.343 -0.85,0.343 -0.506,0 -0.862,-0.343 -0.343,-0.356 -0.343,-0.8629996 z m 2.438,1.7669996 v 6.672 h -2.508 v -6.672 z">
    <animate
       repeatCount="indefinite"
       attributeName="fill"
       keyTimes="0; 0.5; 0.7; 1"
       values="transparent; white; white; white"
       dur="3s" />
  </path>
  <path
     id="path4"
     stroke-width="1.151"
     stroke="#ffffff"
     fill="none"
     overflow="visible"
     font-family="sans-serif"
     font-weight="400"
     color="#ffffff"
     d="m 12.852413,35.846598 c -0.431,-0.097 -0.85,-0.355 -1.243,-0.764 -0.26,-0.27 -1.513,-1.78 -2.4320001,-2.931 -5.959,-7.553 -12.59,-18.256 -5.633,-26.9559996 0.29,-0.355 0.954,-1.052 1.303,-1.368 1.847,-1.675 4.105,-2.757 6.5090001,-3.12199996 0.716,-0.108 1.067,-0.132 1.91,-0.13 0.868,0.001 1.347,0.039 2.052,0.161 3.373,0.58499996 6.323,2.49699996 8.303,5.38099996 1.687,2.457 2.517,5.5159996 2.324,8.5589996 -0.29,4.546 -2.613,9.579 -7.225,15.65 -1.246,1.639 -3.584,4.517 -3.964,4.878 -0.577,0.55 -1.275,0.785 -1.904,0.642 z" />
  <path
     id="path6"
     fill="none"
     overflow="visible"
     font-family="sans-serif"
     font-weight="400"
     color="#ffffff"
     d="m 13.267413,1.9285984 c -0.843,0 -1.197,0.022 -1.914,0.126 a 12.715,12.715 0 0 0 -6.5170001,3.006 c -9.238,8.5839996 -1.252,20.4759996 4.33,27.2459996 0.46,0.553 1.0020001,1.193 1.4630001,1.726 0.46,0.534 0.837,0.96 0.968,1.092 0.395,0.395 0.817,0.646 1.252,0.74 0.635,0.138 1.338,-0.09 1.918,-0.62 0.097,-0.09 0.314,-0.328 0.606,-0.66 a 121.957,121.957 0 0 0 3.36,-4.033 c 4.612,-5.837 6.938,-10.678 7.228,-15.052 a 12.791,12.791 0 0 0 -2.327,-8.2359996 12.716,12.716 0 0 0 -8.314,-5.178 c -0.706,-0.118 -1.185,-0.155 -2.053,-0.156 z m 0,0.032 c 0.867,0.002 1.345,0.039 2.05,0.156 a 12.683,12.683 0 0 1 8.292,5.166 12.758,12.758 0 0 1 2.32,8.2149996 c -0.289,4.365 -2.612,9.2 -7.222,15.033 a 121.622,121.622 0 0 1 -3.358,4.032 c -0.292,0.332 -0.51,0.573 -0.603,0.658 -0.575,0.525 -1.268,0.749 -1.89,0.613 l -0.003,-0.002 h -0.002 c -0.426,-0.094 -0.84,-0.338 -1.23,-0.728 a 32.027,32.027 0 0 1 -0.969,-1.092 c -0.46,-0.534 -1.0040001,-1.172 -1.4630001,-1.725 -6.592,-7.884 -12.99,-18.823 -4.332,-27.2029996 a 12.682,12.682 0 0 1 6.5020001,-2.996 c 0.715,-0.104 1.065,-0.129 1.908,-0.127 z m 1.063,2.127 c -14.38700013,0.003 -9.5130001,19.0249996 -4.305,25.9409996 a 122.649,122.649 0 0 0 2.84,3.346 11.49,11.49 0 0 0 0.33,0.352 l 0.023,0.02 0.008,0.005 0.006,0.002 0.004,0.002 h 0.01 l 0.004,-0.002 0.006,-0.004 a 0.888,0.888 0 0 0 0.059,-0.05 l 0.095,-0.1 v 0.004 l 0.027,-0.032 c 0.109,-0.116 0.533,-0.604 1.01,-1.16 0.477,-0.556 1.006,-1.179 1.326,-1.562 8.087,-8.704 12.102,-24.6949996 -1.443,-26.7619996 z m 1.42,26.7399996 c -0.32,0.384 -0.852,1.009 -1.328,1.565 a 66.346,66.346 0 0 1 -1.008,1.158 3.157,3.157 0 0 1 -0.164,0.162 l -0.012,0.01 -0.002,-0.002 c -0.034,-0.029 -0.067,-0.066 -0.094,-0.092 a 11.544,11.544 0 0 1 -0.254,-0.275 109.73,109.73 0 0 1 -2.838,-3.346 c -1.3080001,-10.883 24.484,-22.4579996 5.7,0.82 z" />
  <path
     id="path8"
     stroke-linejoin="round"
     stroke-width="1.082"
     stroke="#ffffff"
     fill="none"
     d="m 11.112413,6.4835984 a 7.097,7.16 0 0 1 8.816,4.8409996 7.097,7.16 0 0 1 -4.799,8.895 7.097,7.16 0 0 1 -8.8160001,-4.84 7.097,7.16 0 0 1 4.7980001,-8.8959996" />
</svg>
